<mxfile host="app.diagrams.net" agent="Mozilla/5.0 (Windows NT 10.0; Win64; x64) AppleWebKit/537.36 (KHTML, like Gecko) Chrome/131.0.0.0 Safari/537.36" version="25.0.3">
  <diagram name="Page-1" id="97916047-d0de-89f5-080d-49f4d83e522f">
    <mxGraphModel dx="2647" dy="2727.5" grid="1" gridSize="10" guides="1" tooltips="1" connect="1" arrows="1" fold="1" page="1" pageScale="1.5" pageWidth="1169" pageHeight="827" background="none" math="0" shadow="0">
      <root>
        <mxCell id="0" />
        <mxCell id="1" parent="0" />
        <mxCell id="2" value="/START" style="rounded=1;fillColor=#10739E;strokeColor=none;shadow=1;gradientColor=none;fontStyle=1;fontColor=#FFFFFF;fontSize=14;" parent="1" vertex="1">
          <mxGeometry x="970" width="200" height="60" as="geometry" />
        </mxCell>
        <mxCell id="0NsYHm4Lcp_dwHDFbwhv-116" value="" style="edgeStyle=orthogonalEdgeStyle;rounded=0;orthogonalLoop=1;jettySize=auto;html=1;entryX=0.5;entryY=0;entryDx=0;entryDy=0;strokeWidth=3;" edge="1" parent="1" source="3" target="0NsYHm4Lcp_dwHDFbwhv-113">
          <mxGeometry relative="1" as="geometry" />
        </mxCell>
        <mxCell id="3" value="ENTER PHONENUMBER" style="rounded=1;fillColor=#10739E;strokeColor=none;shadow=1;gradientColor=none;fontStyle=1;fontColor=#FFFFFF;fontSize=14;horizontal=1;strokeWidth=3;" parent="1" vertex="1">
          <mxGeometry x="960" y="200" width="220" height="60" as="geometry" />
        </mxCell>
        <mxCell id="0NsYHm4Lcp_dwHDFbwhv-70" value="" style="edgeStyle=orthogonalEdgeStyle;rounded=0;orthogonalLoop=1;jettySize=auto;html=1;strokeWidth=3;" edge="1" parent="1" source="4">
          <mxGeometry relative="1" as="geometry">
            <mxPoint x="692" y="665.5" as="targetPoint" />
          </mxGeometry>
        </mxCell>
        <mxCell id="0NsYHm4Lcp_dwHDFbwhv-88" style="edgeStyle=orthogonalEdgeStyle;rounded=0;orthogonalLoop=1;jettySize=auto;html=1;strokeWidth=3;" edge="1" parent="1" source="4" target="0NsYHm4Lcp_dwHDFbwhv-87">
          <mxGeometry relative="1" as="geometry" />
        </mxCell>
        <mxCell id="4" value="MENU" style="rounded=1;fillColor=#10739E;strokeColor=none;shadow=1;gradientColor=none;fontStyle=1;fontColor=#FFFFFF;fontSize=14;" parent="1" vertex="1">
          <mxGeometry x="592" y="510" width="200" height="60" as="geometry" />
        </mxCell>
        <mxCell id="0NsYHm4Lcp_dwHDFbwhv-73" value="" style="edgeStyle=orthogonalEdgeStyle;rounded=0;orthogonalLoop=1;jettySize=auto;html=1;strokeWidth=3;" edge="1" parent="1" source="5" target="0NsYHm4Lcp_dwHDFbwhv-72">
          <mxGeometry relative="1" as="geometry">
            <Array as="points">
              <mxPoint x="850" y="750" />
            </Array>
          </mxGeometry>
        </mxCell>
        <mxCell id="5" value="SETTINGS" style="rounded=1;fillColor=#10739E;strokeColor=none;shadow=1;gradientColor=none;fontStyle=1;fontColor=#FFFFFF;fontSize=14;" parent="1" vertex="1">
          <mxGeometry x="832" y="570" width="200" height="60" as="geometry" />
        </mxCell>
        <mxCell id="0NsYHm4Lcp_dwHDFbwhv-96" style="edgeStyle=orthogonalEdgeStyle;rounded=0;orthogonalLoop=1;jettySize=auto;html=1;entryX=1;entryY=0.5;entryDx=0;entryDy=0;strokeWidth=3;" edge="1" parent="1" source="6" target="0NsYHm4Lcp_dwHDFbwhv-113">
          <mxGeometry relative="1" as="geometry">
            <Array as="points">
              <mxPoint x="1167" y="610" />
              <mxPoint x="1520" y="610" />
              <mxPoint x="1520" y="330" />
            </Array>
          </mxGeometry>
        </mxCell>
        <mxCell id="6" value="NEWS" style="rounded=1;fillColor=#10739E;strokeColor=none;shadow=1;gradientColor=none;fontStyle=1;fontColor=#FFFFFF;fontSize=14;" parent="1" vertex="1">
          <mxGeometry x="1067" y="525.5" width="200" height="60" as="geometry" />
        </mxCell>
        <mxCell id="30" value="" style="edgeStyle=elbowEdgeStyle;elbow=vertical;strokeWidth=4;endArrow=block;endFill=1;fontStyle=1;strokeColor=#23445D;exitX=0.5;exitY=1;exitDx=0;exitDy=0;" parent="1" source="0NsYHm4Lcp_dwHDFbwhv-113" target="5" edge="1">
          <mxGeometry x="22" y="165.5" width="100" height="100" as="geometry">
            <mxPoint x="312" y="265.5" as="sourcePoint" />
            <mxPoint x="412" y="165.5" as="targetPoint" />
          </mxGeometry>
        </mxCell>
        <mxCell id="31" value="" style="edgeStyle=elbowEdgeStyle;elbow=vertical;strokeWidth=4;endArrow=block;endFill=1;fontStyle=1;strokeColor=#23445D;entryX=0.5;entryY=0;entryDx=0;entryDy=0;exitX=0.5;exitY=1;exitDx=0;exitDy=0;" parent="1" source="0NsYHm4Lcp_dwHDFbwhv-113" target="4" edge="1">
          <mxGeometry x="22" y="165.5" width="100" height="100" as="geometry">
            <mxPoint x="1070" y="290" as="sourcePoint" />
            <mxPoint x="692" y="515.5" as="targetPoint" />
            <Array as="points">
              <mxPoint x="1060" y="430" />
              <mxPoint x="910" y="440" />
              <mxPoint x="1070" y="430" />
            </Array>
          </mxGeometry>
        </mxCell>
        <mxCell id="32" value="" style="edgeStyle=elbowEdgeStyle;elbow=vertical;strokeWidth=4;endArrow=block;endFill=1;fontStyle=1;strokeColor=#23445D;entryX=0.5;entryY=0;entryDx=0;entryDy=0;exitX=0.5;exitY=1;exitDx=0;exitDy=0;" parent="1" source="0NsYHm4Lcp_dwHDFbwhv-113" target="6" edge="1">
          <mxGeometry x="22" y="165.5" width="100" height="100" as="geometry">
            <mxPoint x="1100" y="320.0000000000001" as="sourcePoint" />
            <mxPoint x="1197" y="545.5" as="targetPoint" />
            <Array as="points">
              <mxPoint x="1070" y="430" />
            </Array>
          </mxGeometry>
        </mxCell>
        <mxCell id="0NsYHm4Lcp_dwHDFbwhv-56" value="" style="edgeStyle=elbowEdgeStyle;elbow=vertical;strokeWidth=4;endArrow=block;endFill=1;fontStyle=1;strokeColor=#23445D;entryX=0.5;entryY=0;entryDx=0;entryDy=0;" edge="1" parent="1" source="2" target="0NsYHm4Lcp_dwHDFbwhv-59">
          <mxGeometry x="22" y="165.5" width="100" height="100" as="geometry">
            <mxPoint x="1062" y="60" as="sourcePoint" />
            <mxPoint x="1069.9999999999998" y="130" as="targetPoint" />
          </mxGeometry>
        </mxCell>
        <mxCell id="0NsYHm4Lcp_dwHDFbwhv-115" value="" style="edgeStyle=orthogonalEdgeStyle;rounded=0;orthogonalLoop=1;jettySize=auto;html=1;entryX=0.5;entryY=0;entryDx=0;entryDy=0;strokeWidth=3;" edge="1" parent="1" source="0NsYHm4Lcp_dwHDFbwhv-59" target="3">
          <mxGeometry relative="1" as="geometry">
            <Array as="points">
              <mxPoint x="1070" y="170" />
              <mxPoint x="1070" y="170" />
            </Array>
          </mxGeometry>
        </mxCell>
        <mxCell id="0NsYHm4Lcp_dwHDFbwhv-59" value="ENTER NAME" style="rounded=1;fillColor=#10739E;strokeColor=none;shadow=1;gradientColor=none;fontStyle=1;fontColor=#FFFFFF;fontSize=14;" vertex="1" parent="1">
          <mxGeometry x="970" y="100" width="200" height="60" as="geometry" />
        </mxCell>
        <mxCell id="0NsYHm4Lcp_dwHDFbwhv-95" style="edgeStyle=orthogonalEdgeStyle;rounded=0;orthogonalLoop=1;jettySize=auto;html=1;entryX=1;entryY=0.5;entryDx=0;entryDy=0;strokeWidth=3;" edge="1" parent="1" source="0NsYHm4Lcp_dwHDFbwhv-62" target="0NsYHm4Lcp_dwHDFbwhv-113">
          <mxGeometry relative="1" as="geometry">
            <Array as="points">
              <mxPoint x="1390" y="485" />
              <mxPoint x="1520" y="485" />
              <mxPoint x="1520" y="330" />
            </Array>
          </mxGeometry>
        </mxCell>
        <mxCell id="0NsYHm4Lcp_dwHDFbwhv-62" value="ORDERS" style="rounded=1;fillColor=#10739E;strokeColor=none;shadow=1;gradientColor=none;fontStyle=1;fontColor=#FFFFFF;fontSize=14;" vertex="1" parent="1">
          <mxGeometry x="1290" y="525.5" width="200" height="60" as="geometry" />
        </mxCell>
        <mxCell id="0NsYHm4Lcp_dwHDFbwhv-68" value="" style="edgeStyle=elbowEdgeStyle;elbow=vertical;strokeWidth=4;endArrow=block;endFill=1;fontStyle=1;strokeColor=#23445D;exitX=0.5;exitY=1;exitDx=0;exitDy=0;" edge="1" parent="1" source="0NsYHm4Lcp_dwHDFbwhv-113">
          <mxGeometry x="22" y="165.5" width="100" height="100" as="geometry">
            <mxPoint x="1067" y="300.0000000000001" as="sourcePoint" />
            <mxPoint x="1387" y="525.5" as="targetPoint" />
            <Array as="points">
              <mxPoint x="1147" y="430" />
            </Array>
          </mxGeometry>
        </mxCell>
        <mxCell id="0NsYHm4Lcp_dwHDFbwhv-84" value="" style="edgeStyle=orthogonalEdgeStyle;rounded=0;orthogonalLoop=1;jettySize=auto;html=1;strokeWidth=3;" edge="1" parent="1" source="0NsYHm4Lcp_dwHDFbwhv-71" target="0NsYHm4Lcp_dwHDFbwhv-83">
          <mxGeometry relative="1" as="geometry" />
        </mxCell>
        <mxCell id="0NsYHm4Lcp_dwHDFbwhv-71" value="PRODUCTS" style="rounded=1;fillColor=#10739E;strokeColor=none;shadow=1;gradientColor=none;fontStyle=1;fontColor=#FFFFFF;fontSize=14;" vertex="1" parent="1">
          <mxGeometry x="592" y="670" width="200" height="60" as="geometry" />
        </mxCell>
        <mxCell id="0NsYHm4Lcp_dwHDFbwhv-94" style="edgeStyle=orthogonalEdgeStyle;rounded=0;orthogonalLoop=1;jettySize=auto;html=1;entryX=1;entryY=0.5;entryDx=0;entryDy=0;strokeWidth=3;" edge="1" parent="1" source="0NsYHm4Lcp_dwHDFbwhv-72" target="5">
          <mxGeometry relative="1" as="geometry">
            <Array as="points">
              <mxPoint x="1110" y="745" />
              <mxPoint x="1110" y="600" />
            </Array>
          </mxGeometry>
        </mxCell>
        <mxCell id="0NsYHm4Lcp_dwHDFbwhv-72" value="CHANGE NAME" style="whiteSpace=wrap;html=1;fontSize=14;fillColor=#10739E;strokeColor=none;fontColor=#FFFFFF;rounded=1;shadow=1;gradientColor=none;fontStyle=1;" vertex="1" parent="1">
          <mxGeometry x="940" y="720" width="143" height="50" as="geometry" />
        </mxCell>
        <mxCell id="0NsYHm4Lcp_dwHDFbwhv-93" style="edgeStyle=orthogonalEdgeStyle;rounded=0;orthogonalLoop=1;jettySize=auto;html=1;entryX=1;entryY=0.5;entryDx=0;entryDy=0;strokeWidth=3;" edge="1" parent="1" source="0NsYHm4Lcp_dwHDFbwhv-74" target="5">
          <mxGeometry relative="1" as="geometry">
            <Array as="points">
              <mxPoint x="1110" y="825" />
              <mxPoint x="1110" y="600" />
            </Array>
          </mxGeometry>
        </mxCell>
        <mxCell id="0NsYHm4Lcp_dwHDFbwhv-74" value="CHANGE NUMBER" style="rounded=1;fillColor=#10739E;strokeColor=none;shadow=1;gradientColor=none;fontStyle=1;fontColor=#FFFFFF;fontSize=14;" vertex="1" parent="1">
          <mxGeometry x="936.5" y="800" width="150" height="50" as="geometry" />
        </mxCell>
        <mxCell id="0NsYHm4Lcp_dwHDFbwhv-76" value="" style="edgeStyle=orthogonalEdgeStyle;rounded=0;orthogonalLoop=1;jettySize=auto;html=1;exitX=0.091;exitY=1.005;exitDx=0;exitDy=0;exitPerimeter=0;strokeWidth=3;entryX=0;entryY=0.5;entryDx=0;entryDy=0;" edge="1" parent="1" target="0NsYHm4Lcp_dwHDFbwhv-74">
          <mxGeometry relative="1" as="geometry">
            <mxPoint x="850.2" y="660" as="sourcePoint" />
            <mxPoint x="950" y="813.7" as="targetPoint" />
            <Array as="points">
              <mxPoint x="850" y="825" />
            </Array>
          </mxGeometry>
        </mxCell>
        <mxCell id="0NsYHm4Lcp_dwHDFbwhv-86" value="" style="edgeStyle=orthogonalEdgeStyle;rounded=0;orthogonalLoop=1;jettySize=auto;html=1;strokeWidth=3;" edge="1" parent="1" source="0NsYHm4Lcp_dwHDFbwhv-83" target="0NsYHm4Lcp_dwHDFbwhv-85">
          <mxGeometry relative="1" as="geometry" />
        </mxCell>
        <mxCell id="0NsYHm4Lcp_dwHDFbwhv-83" value="SELECT ONE PRODUCT" style="rounded=1;fillColor=#10739E;strokeColor=none;shadow=1;gradientColor=none;fontStyle=1;fontColor=#FFFFFF;fontSize=14;" vertex="1" parent="1">
          <mxGeometry x="592" y="790" width="200" height="60" as="geometry" />
        </mxCell>
        <mxCell id="0NsYHm4Lcp_dwHDFbwhv-89" style="edgeStyle=orthogonalEdgeStyle;rounded=0;orthogonalLoop=1;jettySize=auto;html=1;entryX=1;entryY=0.5;entryDx=0;entryDy=0;strokeWidth=3;" edge="1" parent="1" source="0NsYHm4Lcp_dwHDFbwhv-85" target="4">
          <mxGeometry relative="1" as="geometry">
            <Array as="points">
              <mxPoint x="820" y="930" />
              <mxPoint x="820" y="540" />
            </Array>
          </mxGeometry>
        </mxCell>
        <mxCell id="0NsYHm4Lcp_dwHDFbwhv-85" value="ADD TO CARD" style="rounded=1;fillColor=#10739E;strokeColor=none;shadow=1;gradientColor=none;fontStyle=1;fontColor=#FFFFFF;fontSize=14;strokeWidth=3;" vertex="1" parent="1">
          <mxGeometry x="592" y="900" width="200" height="60" as="geometry" />
        </mxCell>
        <mxCell id="0NsYHm4Lcp_dwHDFbwhv-102" style="edgeStyle=orthogonalEdgeStyle;rounded=0;orthogonalLoop=1;jettySize=auto;html=1;strokeWidth=3;entryX=0.5;entryY=0;entryDx=0;entryDy=0;" edge="1" parent="1" source="0NsYHm4Lcp_dwHDFbwhv-87" target="0NsYHm4Lcp_dwHDFbwhv-105">
          <mxGeometry relative="1" as="geometry">
            <mxPoint x="420" y="800" as="targetPoint" />
            <Array as="points">
              <mxPoint x="430" y="760" />
              <mxPoint x="430" y="760" />
            </Array>
          </mxGeometry>
        </mxCell>
        <mxCell id="0NsYHm4Lcp_dwHDFbwhv-87" value="CARD" style="rounded=1;fillColor=#10739E;strokeColor=none;shadow=1;gradientColor=none;fontStyle=1;fontColor=#FFFFFF;fontSize=14;" vertex="1" parent="1">
          <mxGeometry x="330" y="670" width="200" height="60" as="geometry" />
        </mxCell>
        <mxCell id="0NsYHm4Lcp_dwHDFbwhv-112" value="" style="edgeStyle=orthogonalEdgeStyle;rounded=0;orthogonalLoop=1;jettySize=auto;html=1;strokeWidth=3;" edge="1" parent="1" source="0NsYHm4Lcp_dwHDFbwhv-90" target="0NsYHm4Lcp_dwHDFbwhv-111">
          <mxGeometry relative="1" as="geometry" />
        </mxCell>
        <mxCell id="0NsYHm4Lcp_dwHDFbwhv-90" value="CREATE ORDER" style="rounded=1;fillColor=#10739E;strokeColor=none;shadow=1;gradientColor=none;fontStyle=1;fontColor=#FFFFFF;fontSize=14;" vertex="1" parent="1">
          <mxGeometry x="330" y="890" width="200" height="60" as="geometry" />
        </mxCell>
        <mxCell id="0NsYHm4Lcp_dwHDFbwhv-110" value="" style="edgeStyle=orthogonalEdgeStyle;rounded=0;orthogonalLoop=1;jettySize=auto;html=1;strokeWidth=3;" edge="1" parent="1" source="0NsYHm4Lcp_dwHDFbwhv-105" target="0NsYHm4Lcp_dwHDFbwhv-90">
          <mxGeometry relative="1" as="geometry" />
        </mxCell>
        <mxCell id="0NsYHm4Lcp_dwHDFbwhv-105" value="ASK PROMOCODE" style="rounded=1;fillColor=#10739E;strokeColor=none;shadow=1;gradientColor=none;fontStyle=1;fontColor=#FFFFFF;fontSize=14;" vertex="1" parent="1">
          <mxGeometry x="330" y="780" width="200" height="60" as="geometry" />
        </mxCell>
        <mxCell id="0NsYHm4Lcp_dwHDFbwhv-111" value="SEND ORDER &#xa;TO CUSTOMER" style="rounded=1;fillColor=#10739E;strokeColor=none;shadow=1;gradientColor=none;fontStyle=1;fontColor=#FFFFFF;fontSize=14;" vertex="1" parent="1">
          <mxGeometry x="330" y="1000" width="200" height="60" as="geometry" />
        </mxCell>
        <mxCell id="0NsYHm4Lcp_dwHDFbwhv-113" value="MAIN MENU" style="rounded=1;fillColor=#10739E;strokeColor=none;shadow=1;gradientColor=none;fontStyle=1;fontColor=#FFFFFF;fontSize=14;horizontal=1;" vertex="1" parent="1">
          <mxGeometry x="960" y="300" width="220" height="60" as="geometry" />
        </mxCell>
      </root>
    </mxGraphModel>
  </diagram>
</mxfile>
